<?xml version="1.0"?><svg width="721.36511" height="524.41833" xmlns="http://www.w3.org/2000/svg">
 <title>gumdrop</title>

 <metadata id="metadata2832">image/svg+xml</metadata>
 <g>
  <title>Layer 1</title>
  <path fill="#7f00ff" fill-rule="evenodd" stroke="#5f00bf" stroke-width="20.377144" stroke-miterlimit="4" id="path3856" d="m209.801407,32.617279c58.227463,-43.022889 110.088516,8.10947 110.202957,46.784271l-108.643463,-22.352482l-1.559494,-24.431789z"/>
  <path fill="#7f00ff" fill-rule="evenodd" stroke="#5f00bf" stroke-width="20.377144" stroke-miterlimit="4" id="path3858" d="m291.933777,26.899229c38.326538,-30.603879 96.354034,-13.038969 109.163269,4.158602l-2.079315,76.934113l-103.44519,-3.638794l-3.638763,-77.45392z"/>
  <path fill="#7f00ff" fill-rule="evenodd" stroke="#5f00bf" stroke-width="20.377144" stroke-miterlimit="4" id="path3860" d="m486.348358,40.414669c-65.924713,-59.300779 -122.680756,21.06995 -120.599426,39.506718l89.409943,32.748962l31.189484,-72.25568z"/>
  <path fill="#7f00ff" fill-rule="evenodd" stroke="#5f00bf" stroke-width="20.377144" stroke-miterlimit="4" id="path3844" d="m207.722,34.696602c-150.347301,-20.682302 -193.5535,316.726402 -197.533401,385.710411c21.7632,34.539001 60.901298,40.121002 98.766402,47.823975c-8.479004,-5.531982 -10.376404,-20.807983 -6.433998,-44.731995c10.718994,-65.049988 63.57299,-347.900093 146.786995,-364.890491c-8.977005,-10.141602 -20.25,-19.262901 -41.585999,-23.9119l0,0l0,0z"/>
  <path fill="#7f00ff" fill-rule="evenodd" stroke="#5f00bf" stroke-width="20.377144" stroke-miterlimit="4" id="path3848" d="m246.188995,60.687901c30.292999,1.140598 60.959015,1.036499 83.171997,29.110203c-11.548004,12.788895 -26.428986,23.7799 -29.738007,39.11689c-28.450989,131.850998 -61.51799,319.220016 -44.076981,349.712021c-63.747009,25.857971 -115.389999,26.408997 -148.670006,-11.436005c-9.081001,-8.246002 -8.051697,-26.602997 -6.237999,-45.744995c37.621994,-154.389008 68.149002,-331.013611 145.550995,-360.758114l0,0l0,0z"/>
  <path fill="#7f00ff" fill-rule="evenodd" stroke="#5f00bf" stroke-width="20.377144" stroke-miterlimit="4" id="path3850" d="m316.885406,100.19458c25.787537,-31.355103 98.70108,-19.604797 102.925354,0c57.246613,152.948853 74.114288,344.038757 69.656555,384.670532c-62.129486,39.326599 -169.715637,38.978699 -237.040253,0c-2.346161,-95.562561 22.2836,-258.181396 44.450317,-348.383789c4.134003,-16.822266 12.793152,-28.754456 20.008026,-36.286743z"/>
  <path fill="#7f00ff" fill-rule="evenodd" stroke="#5f00bf" stroke-width="20.377144" stroke-miterlimit="4" d="m479.931,70.044701c-25.095001,-6.136902 -54.721008,-12.478901 -76.93399,15.594803c11.548004,12.788696 26.428986,23.780495 29.737976,39.116493c28.451019,131.852005 71.914001,325.459 54.473022,355.951004c64.786987,20.658997 113.310974,6.654999 138.273987,-17.674988c9.080994,-8.246002 0.773987,-26.603027 -1.039978,-45.744019c-37.622009,-154.389984 -67.108032,-317.498695 -144.511017,-347.243294l0,0z" id="path3852"/>
  <path fill="#7f00ff" fill-rule="evenodd" stroke="#5f00bf" stroke-width="20.377144" stroke-miterlimit="4" d="m496.744995,38.855202c28.778992,-7.371401 73.737,14.231098 81.460999,26.6185c70.187012,112.5653 123.742981,273.711296 132.707031,333.100304c4.227966,38.697998 -43.227051,56.755981 -81.093018,64.458008c8.479004,-5.531006 -0.161987,-29.810028 -7.080994,-53.048004c-22.155029,-74.407013 -53.177002,-334.38501 -167.580017,-347.216908c9.822998,-9.765503 19.591003,-19.556 41.585999,-23.9119l0,0z" id="path3854"/>
 </g>
</svg>